<svg width="408" height="408" xmlns="http://www.w3.org/2000/svg" version="1.1" xml:space="preserve">
 <g>
  <title>Layer 1</title>
  <path fill="#666666" stroke="null" d="m51.75,102.5c27.9125,0 50.75,-22.8375 50.75,-50.75s-22.8375,-50.75 -50.75,-50.75s-50.75,22.8375 -50.75,50.75s22.8375,50.75 50.75,50.75zm152.25,304.50001c27.9125,0 50.75,-22.8375 50.75,-50.75s-22.8375,-50.75 -50.75,-50.75s-50.75,22.8375 -50.75,50.75s22.8375,50.75 50.75,50.75zm-152.25,0c27.9125,0 50.75,-22.8375 50.75,-50.75s-22.8375,-50.75 -50.75,-50.75s-50.75,22.8375 -50.75,50.75s22.8375,50.75 50.75,50.75zm0,-152.25c27.9125,0 50.75,-22.8375 50.75,-50.75s-22.8375,-50.75 -50.75,-50.75s-50.75,22.8375 -50.75,50.75s22.8375,50.75 50.75,50.75zm152.25,0c27.9125,0 50.75,-22.8375 50.75,-50.75s-22.8375,-50.75 -50.75,-50.75s-50.75,22.8375 -50.75,50.75s22.8375,50.75 50.75,50.75zm101.5,-203.00001c0,27.9125 22.8375,50.75 50.75,50.75s50.75,-22.8375 50.75,-50.75s-22.8375,-50.75 -50.75,-50.75s-50.75,22.8375 -50.75,50.75zm-101.5,50.75c27.9125,0 50.75,-22.8375 50.75,-50.75s-22.8375,-50.75 -50.75,-50.75s-50.75,22.8375 -50.75,50.75s22.8375,50.75 50.75,50.75zm152.25,152.25c27.9125,0 50.75,-22.8375 50.75,-50.75s-22.8375,-50.75 -50.75,-50.75s-50.75,22.8375 -50.75,50.75s22.8375,50.75 50.75,50.75zm0,152.25c27.9125,0 50.75,-22.8375 50.75,-50.75s-22.8375,-50.75 -50.75,-50.75s-50.75,22.8375 -50.75,50.75s22.8375,50.75 50.75,50.75z" id="svg_1"/>
  <g id="svg_4"/>
  <g id="svg_5"/>
  <g id="svg_6"/>
  <g id="svg_7"/>
  <g id="svg_8"/>
  <g id="svg_9"/>
  <g id="svg_10"/>
  <g id="svg_11"/>
  <g id="svg_12"/>
  <g id="svg_13"/>
  <g id="svg_14"/>
  <g id="svg_15"/>
  <g id="svg_16"/>
  <g id="svg_17"/>
  <g id="svg_18"/>
 </g>

</svg>